<?xml version="1.0" encoding="utf-8"?>
<!-- Generator: Adobe Illustrator 27.1.1, SVG Export Plug-In . SVG Version: 6.00 Build 0)  -->
<svg version="1.1" id="Layer_1" xmlns="http://www.w3.org/2000/svg" xmlns:xlink="http://www.w3.org/1999/xlink" x="0px" y="0px"
	 viewBox="0 0 24 24" style="enable-background:new 0 0 24 24;" xml:space="preserve">
<style type="text/css">
	.st0{fill:#EEC954;}
	.st1{fill:#C5943D;}
	.st2{fill:#E2B83D;}
	.st3{fill:#BE8B38;}
	.st4{fill:#D2AB50;}
	.st5{fill:#E9D171;}
	.st6{fill:#CCA349;}
	.st7{fill:#E4BA3E;}
	.st8{fill:#FCF6A0;}
	.st9{fill:#F6E384;}
	.st10{fill:#C8BA6F;}
	.st11{fill:#DAC872;}
	.st12{fill:#C0B063;}
	.st13{fill:#C5B466;}
	.st14{fill:#DAB03B;}
	.st15{fill:#F9EE91;}
	.st16{fill:#D7B65A;}
	.st17{fill:#C6963E;}
	.st18{fill:#C2A13D;}
	.st19{fill:#D1B452;}
	.st20{fill:#DFB845;}
	.st21{fill:#C7BB71;}
	.st22{fill:#DABB5E;}
	.st23{fill:#DBB23C;}
	.st24{fill:#AE7C2E;}
	.st25{fill:#E0B63D;}
	.st26{fill:#E0B741;}
	.st27{fill:#D5CE86;}
	.st28{fill:#CAA437;}
	.st29{fill:#BEA650;}
	.st30{fill:#E0CE79;}
	.st31{fill:#EBD679;}
	.st32{fill:#E8C554;}
	.st33{fill:#BB832F;}
	.st34{fill:#D1BC65;}
	.st35{fill:#D2B95E;}
	.st36{fill:#D3BE67;}
	.st37{fill:#A38E43;}
	.st38{fill:#CEB75D;}
	.st39{fill:#B19845;}
	.st40{fill:#D0AB3C;}
	.st41{fill:#CDA737;}
	.st42{fill:#EEDC7C;}
	.st43{fill:#AF9847;}
	.st44{fill:#A78931;}
	.st45{fill:#DCB33C;}
	.st46{fill:#B7AB66;}
	.st47{fill:#C1B873;}
	.st48{fill:#DEC165;}
	.st49{fill:#C2AD5B;}
	.st50{fill:#C29D34;}
	.st51{fill:#B6983B;}
	.st52{fill:#B6AA65;}
	.st53{fill:#908A59;}
	.st54{fill:#E6C14E;}
	.st55{fill:#837134;}
	.st56{fill:#DFCA70;}
	.st57{fill:#837133;}
	.st58{fill:#9F812B;}
	.st59{fill:#C0A854;}
	.st60{fill:#BCA450;}
	.st61{fill:#C7AB4C;}
	.st62{fill:#DAD287;}
	.st63{fill:#B89C41;}
	.st64{fill:#A89042;}
	.st65{fill:#BD8934;}
	.st66{fill:#917930;}
	.st67{fill:#B29B49;}
	.st68{fill:#DAC56D;}
	.st69{fill:#CCA639;}
	.st70{fill:#CBA538;}
	.st71{fill:#C2A03C;}
	.st72{fill:#E6DF93;}
	.st73{fill:#C4A23E;}
	.st74{fill:#E0C368;}
	.st75{fill:#BC9B39;}
	.st76{fill:#CFAF4B;}
	.st77{fill:#A58832;}
	.st78{fill:#AC903A;}
	.st79{fill:#9E802B;}
	.st80{fill:#BCA34B;}
	.st81{fill:#CEAB40;}
	.st82{fill:#CBAF4F;}
	.st83{fill:#B59C47;}
	.st84{fill:#E8C85A;}
	.st85{fill:#A78930;}
	.st86{fill:#DCBB52;}
	.st87{fill:#F5E584;}
	.st88{fill:#957928;}
	.st89{fill:#BF9D39;}
	.st90{fill:#CFBE6D;}
	.st91{fill:#D9BB54;}
	.st92{fill:#C1A74B;}
	.st93{fill:#838383;}
	.st94{fill:#606060;}
	.st95{fill:#4A3C14;}
	.st96{fill:#828282;}
</style>
<g>
	<path class="st0" d="M13.3,7.2c0,0,0.1,0,0.1,0c0.6,0,1,0,1.6,0.2c0.1,0,0.1,0,0.2,0.1c0.4,0.1,0.4,0.1,0.4,0.3c0,0-0.1,0-0.1,0
		c-1.6-0.3-3.1-0.3-4.6,0.6c-0.2,0.1-0.3,0.2-0.5,0.4c0,0-0.1,0.1-0.1,0.1c-0.9,0.8-1.5,2-1.6,3.1c-0.1,1.4,0.2,2.8,1.1,3.9
		c0.9,1,2.2,1.7,3.5,1.8c0.6,0,1.2,0,1.8-0.1c0,0,0.1,0,0.1,0c0.1,0,0.1,0,0.1,0c0.1,0,0.1,0,0.3,0c-1.3,0.6-2.8,0.7-4.1,0.3
		c-1-0.4-1.8-1-2.4-1.8c0,0,0-0.1,0-0.1c-0.1,0-0.1,0-0.2,0c-0.2,0-0.4,0-0.6,0c-0.1,0-0.2,0-0.3,0c-0.1,0-0.3,0-0.4,0
		c0,0-0.1,0-0.1,0c-0.3,0-0.4-0.1-0.7-0.3c-0.1-0.1-0.1-0.2-0.2-0.4c0,0,0,0,0.1-0.1c0.3,0,0.7,0,1,0c0-1.7,0-3.3,0-5
		c-0.3,0-0.7,0-1,0c0.1-0.4,0.1-0.4,0.2-0.5c0.2-0.1,0.4-0.1,0.7-0.1c0.1,0,0.2,0,0.2,0c0.1,0,0.3,0,0.4,0c0.5,0,0.5,0,1-0.2
		c0.1-0.1,0.2-0.3,0.3-0.4C10.5,7.7,11.8,7.2,13.3,7.2z"/>
	<path class="st1" d="M6.4,18.1c0.1,0.1,0.2,0.2,0.3,0.3c0,0.4-0.1,0.7-0.3,1.1c-0.1,0-0.1,0-0.2-0.1c0-0.3,0.1-0.5,0.2-0.8
		c0-0.1,0-0.1-0.1-0.3c-0.4-0.1-0.6,0.1-0.9,0.3c-0.6,0.4-1,1-1.3,1.6c0,0.2,0,0.2,0,0.3c0,0,0,0.1,0,0.1c0,0.1,0,0.1,0.1,0.2
		c0.4,0.1,0.7-0.1,1-0.3c0.3-0.2,0.6-0.4,0.9-0.7c-0.1,0-0.1,0-0.1,0c-0.1,0-0.1,0-0.1,0c0,0-0.1,0-0.1,0c-0.2,0-0.3,0-0.5,0
		c0-0.1,0-0.1,0.1-0.2c0.5-0.2,1.1-0.2,1.6-0.2c0,0.1,0,0.1,0,0.2c0,0-0.1,0-0.1,0c-0.2,0-0.4,0.1-0.5,0.2c-0.2,0.4-0.4,0.9-0.4,1.3
		c0,0.1,0,0.1,0,0.2c0.1,0,0.1,0,0.2,0c0,0.1,0,0.1-0.1,0.2c-0.1,0-0.1,0-0.2,0.1C6,21.7,6,21.7,5.9,21.6c-0.1-0.4,0.1-0.8,0.2-1.3
		c-0.1,0-0.1,0-0.1,0.1c-1.1,0.8-1.1,0.8-1.7,0.8C4.1,21.1,4.1,21,4,20.9c-0.1-0.6,0-0.9,0.4-1.4C4.8,18.8,5.5,18,6.4,18.1z"/>
	<path class="st2" d="M8.3,2.7c0.2,0,0.2,0,0.3,0.1c0,0.1,0,0.1,0,0.2C8.8,3.4,8.9,3.6,9,3.8c0,0.1,0,0.1,0.1,0.1
		c0.5,0.8,0.5,0.8,1.2,1.4c0.2,0,0.3,0,0.4-0.2c0.2-0.3,0.3-0.7,0.4-1.1c0,0,0,0,0.1,0c0,0.5,0,1-0.3,1.4c-0.2,0.1-0.2,0.2-0.5,0.2
		c-0.3,0-0.5-0.3-0.7-0.5C9.4,4.7,9.1,4.3,8.8,3.8c0,0,0-0.1-0.1-0.1C8.6,3.5,8.6,3.5,8.6,3.3c-0.1,0-0.1,0-0.1,0.1c0,0,0,0.1,0,0.1
		c0.8,2.2,0.8,2.2,0.6,2.8C8.9,6.5,8.7,6.5,8.5,6.5C8.1,6.4,7.8,6.2,7.6,6C7.6,6,7.6,6,7.7,6c0.1,0,0.1,0,0.2,0.1
		c0.3,0.1,0.6,0.2,0.9,0.1c0.1-0.1,0.1-0.1,0.2-0.2c0-0.3,0-0.6-0.1-0.9c0,0,0-0.1,0-0.1c-0.1-0.3-0.2-0.7-0.3-1c0,0,0-0.1-0.1-0.1
		C8.3,3.5,8.2,3.3,8,3.1C8,2.9,8.1,2.8,8.3,2.7z"/>
	<path class="st3" d="M21.4,18.8c0,0.3-0.1,0.6-0.3,0.9c-0.2,0.5-0.3,1-0.4,1.5c-0.1,0-0.2,0-0.3,0c0-0.4,0.1-0.7,0.2-1
		c0.1-0.1,0.1-0.1,0-0.2c-0.2,0-0.4,0-0.6,0.1c0,0,0,0.1,0,0.1c-0.1,0.2-0.2,0.4-0.2,0.6c-0.1,0.2-0.1,0.3-0.2,0.5
		c-0.1,0-0.2,0-0.3,0c0-0.3,0.1-0.6,0.2-0.9c0,0,0-0.1,0.1-0.1c0.1-0.2,0.2-0.4,0.3-0.6c-0.1,0-0.1,0-0.3,0
		c-0.2,0.1-0.2,0.1-0.3,0.3c-0.1,0-0.1,0-0.2-0.1c0-0.2,0.1-0.3,0.2-0.5c0.1-0.1,0.1-0.1,0.3-0.1c0.1,0,0.1,0,0.2,0
		c0.2,0,0.3,0,0.5,0c0,0.1-0.1,0.3-0.1,0.4c0.2,0,0.4,0,0.6,0c0-0.1,0.1-0.2,0.1-0.3c0-0.1,0-0.1,0-0.2c0-0.1,0-0.2,0.1-0.3
		c0,0,0-0.1,0-0.1C21.2,18.8,21.2,18.8,21.4,18.8z"/>
	<path class="st4" d="M17.9,18.9c0,0.1,0,0.1,0.1,0.2c0.2,0,0.3,0,0.5,0c0,0.2,0,0.2-0.1,0.2c-0.1,0.1-0.2,0.1-0.3,0.2
		c0.2,0,0.2,0,0.3,0.1c-0.1,0.2-0.1,0.2-0.3,0.3c0,0-0.1,0-0.1,0.1c0,0,0,0-0.1,0.1c0.1,0,0.3,0,0.4,0.1c0,0,0,0,0,0.1
		c0,0.4-0.1,0.7-0.1,1.1c-0.1,0-0.3,0-0.4,0c0-0.6,0-0.6,0.1-0.8c-0.2,0-0.2,0-0.4,0c-0.3,0.2-0.5,0.6-0.6,0.9c-0.1,0-0.2,0-0.3,0
		c0.1-0.6,0.6-1,1-1.4c-0.1,0-0.1,0-0.2-0.1c0.1-0.2,0.2-0.3,0.4-0.4c-0.1,0-0.1,0-0.2-0.1c0-0.2,0-0.3,0-0.5
		C17.8,18.8,17.8,18.8,17.9,18.9z"/>
	<path class="st5" d="M17,19.3c0,0.3-0.1,0.5-0.3,0.8c-0.3,0.3-0.4,0.7-0.6,1.1c0,0.1-0.1,0.1-0.1,0.2c-0.1,0-0.2,0-0.3,0
		c0-0.6,0.4-1,0.7-1.5c0.1-0.2,0.1-0.2,0.2-0.3c-0.1,0-0.3,0-0.4,0c0,0.1,0,0.1,0,0.1c-0.1,0.3-0.2,0.4-0.5,0.6
		c-0.5,0.1-0.5,0.1-0.7-0.1c-0.1-0.1-0.1-0.1-0.1-0.3c0.1-0.3,0.3-0.4,0.5-0.5c0.2,0,0.3-0.1,0.5-0.1c0,0,0.1,0,0.1,0
		C16.7,19.1,16.7,19.1,17,19.3z M15.3,19.7c-0.1,0.1-0.1,0.1-0.1,0.3c0.2,0,0.3,0,0.5-0.1c0.1-0.1,0.1-0.1,0.1-0.2
		C15.5,19.6,15.5,19.6,15.3,19.7z"/>
	<path class="st6" d="M7.1,19.7c0,0.1,0,0.1,0,0.2c0,0-0.1,0-0.1,0c-0.2,0-0.4,0.1-0.5,0.2c-0.2,0.4-0.4,0.9-0.4,1.3
		c0,0.1,0,0.1,0,0.2c0.1,0,0.1,0,0.2,0c0,0.1,0,0.1-0.1,0.2c-0.1,0-0.1,0-0.2,0.1C6,21.7,6,21.7,5.9,21.6c-0.1-0.4,0.1-0.8,0.2-1.3
		c0,0-0.1,0.1-0.1,0.1c-0.1,0-0.1,0.1-0.2,0.1c0,0-0.1,0-0.1,0.1c-0.2,0.2-0.3,0.2-0.6,0.2c0.2-0.2,0.3-0.3,0.5-0.4
		c0.2-0.1,0.4-0.3,0.6-0.4c0,0-0.1,0-0.1,0c-0.3,0.1-0.5,0.1-0.7,0c0-0.1,0-0.1,0.1-0.2C6,19.7,6.6,19.6,7.1,19.7z"/>
	<path class="st7" d="M16.7,9.7c-0.1,0.3-0.2,0.5-0.4,0.7c0,0-0.1,0.1-0.1,0.1c-0.1,0.1-0.2,0.2-0.3,0.3c-0.1,0.1-0.1,0.1-0.2,0.2
		c-0.3,0.3-0.6,0.6-0.9,0.9c-0.1,0.1-0.2,0.2-0.3,0.3c-0.1,0-0.1-0.1-0.2-0.1c0.1-0.2,0.1-0.3,0.3-0.4c0,0,0.1-0.1,0.1-0.1
		c0,0,0.1-0.1,0.1-0.1c0,0,0.1-0.1,0.1-0.1c0.1-0.1,0.1-0.1,0.2-0.2c0.1-0.1,0.2-0.2,0.3-0.3C16.5,9.7,16.5,9.7,16.7,9.7z"/>
	<path class="st8" d="M11.3,20.1c0.1,0,0.1,0,0.2,0.1c0,0.1,0,0.2,0,0.3c0.1,0,0.3,0.1,0.4,0.1c0.1-0.1,0.1-0.1,0.1-0.1
		c0.2-0.1,0.2-0.1,0.4-0.1c-0.1,0.2-0.1,0.2-0.2,0.3c-0.2,0.2-0.3,0.4-0.4,0.6c-0.3,0.7-0.3,0.7-0.5,0.9c-0.1,0-0.1,0-0.2,0
		c0-0.3,0.1-0.4,0.2-0.7c0-0.1,0.1-0.1,0.1-0.2c0.1-0.2,0.2-0.4,0.4-0.5c-0.3,0.1-0.3,0.1-0.6,0.3c0-0.2,0-0.3,0.1-0.4
		c0.1-0.1,0.1-0.2,0.2-0.3c0,0-0.1,0.1-0.1,0.1c-0.1,0.1-0.1,0.1-0.3,0.1c0-0.1,0-0.2,0.2-0.3C11.2,20.1,11.2,20.1,11.3,20.1z"/>
	<path class="st9" d="M14,12.2c0.2,0.1,0.2,0.1,0.3,0.3c0,0.2,0,0.3-0.1,0.5c-0.1,0.1-0.2,0.2-0.4,0.2c-0.2,0-0.3-0.1-0.4-0.2
		c-0.1-0.2-0.1-0.3-0.1-0.4C13.4,12.2,13.6,12.1,14,12.2z"/>
	<path class="st10" d="M9.1,4c0,0,0.1,0,0.1,0c0.1,0.1,0.2,0.2,0.2,0.3c0.4,0.6,0.4,0.6,1,1c0.2,0,0.3-0.1,0.4-0.3
		C10.9,4.9,11,4.7,11,4.5c0,0,0-0.1,0-0.1c0-0.1,0-0.2,0.1-0.3c0,0,0,0,0.1,0c0,0.5,0,1-0.3,1.4c-0.2,0.1-0.2,0.2-0.5,0.2
		c-0.3,0-0.5-0.3-0.7-0.5C9.6,5,9.5,4.9,9.4,4.7c0,0-0.1-0.1-0.1-0.1C9.2,4.4,9.1,4.2,9.1,4z"/>
	<path class="st11" d="M11,11.1c0.4,0.1,0.8,0.3,1.2,0.5c0.1,0,0.1,0.1,0.2,0.1c0.3,0.2,0.5,0.3,0.8,0.5c0,0.1,0,0.1-0.1,0.2
		c-0.2,0-0.4-0.1-0.6-0.2c0,0-0.1,0-0.1-0.1c-0.1,0-0.1-0.1-0.2-0.1c-0.1-0.1-0.2-0.1-0.3-0.2C11.1,11.5,11.1,11.5,11,11.1
		C11,11.2,11,11.2,11,11.1z"/>
	<path class="st12" d="M11.3,3.3c0.1,0,0.2,0,0.3,0c0,0,0,0.1,0,0.1c0,0.9,0,1.6,0.2,2.4c0,0.1,0,0.2,0.1,0.3
		c-0.1,0-0.2,0.1-0.3,0.1c0-0.1-0.1-0.1-0.1-0.2c0,0,0-0.1,0-0.1c-0.1-0.4-0.1-0.8-0.1-1.2c0-0.1,0-0.1,0-0.2c0-0.3,0-0.6,0.1-0.9
		c-0.1,0-0.1,0-0.2-0.1C11.2,3.5,11.2,3.4,11.3,3.3z"/>
	<path class="st13" d="M6.9,5.5c0.1,0,0.1,0,0.1,0c0,0,0,0.1,0,0.1C7.1,5.9,7.2,5.9,7.4,6C8,6.4,8.6,6.9,8.9,7.5
		c0,0.1,0,0.1-0.1,0.2c-0.1,0-0.1,0-0.2,0.1c0,0-0.1-0.1-0.1-0.1c-0.5-0.7-1-1.3-1.7-1.7C6.8,5.8,6.8,5.8,6.7,5.7c0,0,0-0.1,0-0.1
		C6.8,5.5,6.8,5.5,6.9,5.5z"/>
	<path class="st6" d="M6.4,18.1c0.1,0.1,0.2,0.2,0.3,0.3c0,0.4-0.1,0.7-0.3,1.1c-0.1,0-0.1,0-0.2-0.1c0-0.3,0.1-0.5,0.2-0.8
		c0-0.1,0-0.1-0.1-0.3c-0.4-0.1-0.6,0.1-0.9,0.3c0,0-0.1,0.1-0.1,0.1c-0.1,0-0.1,0-0.2-0.1C5.5,18.3,5.9,18,6.4,18.1z"/>
	<path class="st14" d="M9,4.9c0.2,0.4,0.3,0.8,0.2,1.2C9.2,6.3,9.2,6.3,9,6.4C8.7,6.5,8.4,6.5,8,6.3C7.9,6.2,7.7,6.1,7.6,6
		c0,0,0.1,0,0.1-0.1c0.1,0,0.1,0,0.2,0.1c0.3,0.1,0.6,0.2,0.9,0.1c0.1-0.1,0.1-0.1,0.2-0.2c0-0.3,0-0.6-0.1-0.9c0,0,0.1,0,0.1,0
		C9,5,9,5,9,4.9z"/>
	<path class="st15" d="M10,20c0.1,0,0.2,0,0.3,0.1c0,0.3-0.1,0.4-0.3,0.7c0.1,0,0.2-0.1,0.2-0.1c0,0,0.1,0,0.1-0.1
		c0.1-0.1,0.1-0.1,0.2-0.2c0.1-0.1,0.1-0.1,0.2-0.1c-0.1,0.2-0.2,0.3-0.3,0.4c0,0-0.1,0.1-0.1,0.1c-0.2,0.1-0.3,0.1-0.5,0.1
		c-0.1-0.1-0.1-0.1-0.2-0.2C9.7,20.3,9.8,20.2,10,20z M10,20.3c0,0.2,0,0.2,0,0.2V20.3z"/>
	<path class="st16" d="M7.8,20c0,0.3-0.1,0.4-0.3,0.6c0.2-0.1,0.3-0.1,0.5-0.3c0.2-0.1,0.2-0.1,0.3-0.1c0,0.2-0.1,0.3-0.3,0.4
		c-0.2,0.2-0.4,0.2-0.6,0.2c-0.1-0.1-0.2-0.2-0.2-0.4c0-0.2,0.1-0.3,0.2-0.4C7.6,20,7.6,20,7.8,20z"/>
	<path class="st17" d="M20.4,19.3c0,0.1,0,0.2-0.1,0.3c-0.1,0-0.1,0-0.1,0c-0.4,0-0.4,0-0.7,0.2c0,0.1,0,0.1-0.1,0.1
		c-0.1,0-0.1,0-0.2-0.1c0-0.2,0.1-0.3,0.2-0.5c0.1-0.1,0.1-0.1,0.3-0.1c0.1,0,0.1,0,0.2,0C20,19.3,20.2,19.3,20.4,19.3z"/>
	<path class="st18" d="M16.7,9.7c-0.1,0.3-0.2,0.5-0.4,0.7c0,0-0.1,0.1-0.1,0.1c-0.1,0.1-0.1,0.1-0.2,0.2c0-0.1-0.1-0.1-0.1-0.2
		c-0.1,0.1-0.3,0.3-0.4,0.4c0,0-0.1,0-0.1-0.1C16.4,9.7,16.4,9.7,16.7,9.7z"/>
	<path class="st19" d="M14.1,9.2c0.2,0,0.2,0,0.2,0.1c0,0.1,0,0.1,0,0.3c-0.1,0-0.1,0.1-0.2,0.1c0.1,0,0.1,0.1,0.2,0.1
		c0,0.1,0,0.2-0.1,0.3c-0.1,0-0.3,0-0.4,0c-0.1-0.1-0.1-0.1-0.1-0.2c0-0.1,0-0.1,0-0.2c0-0.1,0-0.1,0-0.2
		C13.9,9.2,13.9,9.2,14.1,9.2z M14.1,9.3c0,0.1,0,0.1-0.1,0.2c0.1,0,0.1,0,0.2,0c0-0.1,0-0.1,0-0.2C14.2,9.3,14.1,9.3,14.1,9.3z
		 M14.1,9.8c0,0,0,0.1,0,0.1c0.1,0,0.1,0,0.2,0c0,0,0-0.1,0-0.1C14.2,9.8,14.1,9.8,14.1,9.8z"/>
	<path class="st20" d="M13.7,12.2c0,0.3,0,0.6,0,0.9c0.1,0,0.2,0,0.3,0c0,0,0,0,0,0.1c-0.2,0-0.3,0-0.5-0.1
		c-0.1-0.1-0.2-0.2-0.2-0.4c0-0.2,0.1-0.3,0.2-0.4C13.6,12.2,13.6,12.2,13.7,12.2z"/>
	<path class="st21" d="M13.5,15.2c0.2,0,0.3,0,0.5,0c0,0.1,0,0.3-0.1,0.4c0.1,0,0.1,0,0.2,0.1c0,0.1,0,0.1,0.1,0.2
		C14.1,16,14.1,16,14,16.1c-0.1,0-0.2,0-0.3,0c0-0.2,0.1-0.4,0.1-0.7c-0.1,0-0.2,0-0.3,0.1C13.5,15.4,13.5,15.3,13.5,15.2z
		 M13.9,15.8c0,0,0,0.1,0,0.1c0,0,0.1,0,0.1-0.1C14,15.8,13.9,15.8,13.9,15.8z"/>
	<path class="st22" d="M17.2,20.5c0.1,0,0.1,0,0.1,0c0,0.2-0.1,0.3-0.2,0.5c0,0.1-0.1,0.1-0.1,0.2c0,0,0,0.1-0.1,0.1
		c-0.1,0-0.2,0-0.3,0c0-0.2,0.1-0.4,0.2-0.6c0-0.1,0-0.1,0.1-0.1C17,20.5,17,20.5,17.2,20.5z"/>
	<path class="st23" d="M10.3,12.2c0,0,0.1,0,0.1,0c0,0.1,0,0.2,0,0.3c0.1,0,0.2,0,0.3-0.1c0-0.1,0-0.1,0.1-0.2c0,0,0.1,0,0.1,0
		c0,0.1,0,0.2,0,0.3c0,0.1,0,0.1,0,0.2c0,0.2,0,0.2-0.1,0.3c-0.1,0.1-0.2,0.1-0.4,0.1c-0.1-0.1-0.1-0.1-0.1-0.3c0-0.1,0-0.1,0-0.2
		c0-0.1,0-0.1,0-0.2C10.3,12.4,10.3,12.3,10.3,12.2z M10.4,12.6c0,0.1,0,0.2,0,0.3c0.1,0,0.1,0,0.3,0.1c0-0.1,0-0.2,0.1-0.3
		C10.6,12.6,10.5,12.6,10.4,12.6z"/>
	<path class="st24" d="M20.5,20.4c0.1,0,0.2,0,0.3,0c-0.1,0.3-0.1,0.5-0.2,0.8c-0.1,0-0.2,0-0.3,0C20.4,20.7,20.4,20.7,20.5,20.4z"
		/>
	<path class="st25" d="M8.3,6.8C8.5,7,8.8,7.2,8.9,7.5c0,0.1,0,0.1-0.1,0.2c-0.1,0-0.1,0-0.2,0.1C8.6,7.6,8.5,7.5,8.5,7.4
		c0-0.1-0.1-0.1-0.1-0.2C8.2,7.1,8.2,7.1,8.2,6.9c0,0,0.1,0,0.1-0.1C8.3,6.8,8.3,6.8,8.3,6.8z"/>
	<path class="st26" d="M11.4,5.3c0.1,0,0.1,0,0.2,0c0,0.1,0.1,0.2,0.1,0.3c0,0.1,0.1,0.1,0.1,0.2c0.1,0.2,0.1,0.2,0,0.4
		c-0.1,0-0.1,0-0.2,0.1C11.4,6,11.3,5.7,11.4,5.3z"/>
	<path class="st27" d="M15.9,10.4C15.9,10.4,16,10.4,15.9,10.4c0.1,0.2,0.1,0.3,0,0.5c0,0-0.1,0.1-0.1,0.1c-0.1,0.1-0.1,0.1-0.1,0.1
		c-0.1,0.1-0.1,0.1-0.3,0.1c0-0.1,0-0.2-0.1-0.3c0,0,0.1,0,0.1-0.1C15.6,10.7,15.7,10.6,15.9,10.4z"/>
	<path class="st28" d="M11,11.1c0.4,0.1,0.7,0.2,1,0.4c-0.1,0-0.1,0-0.2,0.1c0,0-0.1,0-0.1,0c-0.2,0-0.3,0-0.4-0.1
		c0,0-0.1-0.1-0.1-0.1C11.1,11.4,11.1,11.3,11,11.1z"/>
	<path class="st29" d="M11.1,4.1C11.2,4.1,11.2,4.1,11.1,4.1c0.1,0.4,0,0.9-0.2,1.3c-0.1,0.1-0.2,0.1-0.4,0.1c0,0-0.1-0.1-0.1-0.1
		c0,0,0.1,0,0.1-0.1C11,5,11,4.5,11.1,4.1z"/>
	<path class="st30" d="M10.4,4.4c0.1,0,0.1,0,0.2,0c0,0,0,0.1,0,0.1c0,0,0,0.1,0,0.1c0,0.1,0,0.1,0,0.1c0,0.1,0,0.1,0.1,0.3
		c0,0,0,0.1,0,0.1c-0.1,0.1-0.1,0.1-0.3,0.1c0,0-0.1,0-0.1,0c0-0.1,0-0.3,0-0.4c0-0.1,0-0.1,0-0.1C10.3,4.6,10.3,4.5,10.4,4.4
		C10.3,4.4,10.4,4.4,10.4,4.4z"/>
	<path class="st31" d="M8.1,5.5c0.2,0,0.2,0,0.4,0.1c0,0,0.1,0.1,0.1,0.1c0.1,0,0.1,0.1,0.2,0.1c0,0,0.1,0,0.1,0.1
		c0,0.1,0,0.1,0,0.2c-0.1,0-0.2,0.1-0.3,0.1c0,0,0,0-0.1-0.1c0,0,0-0.1-0.1-0.1c0,0,0-0.1-0.1-0.1C8.2,5.7,8.2,5.7,8.1,5.7
		C8.1,5.6,8.1,5.5,8.1,5.5z"/>
	<path class="st32" d="M10.5,5.4c0.1,0,0.2,0,0.4,0c-0.1,0.2-0.1,0.2-0.3,0.3c-0.2,0-0.3,0-0.5-0.1c0,0-0.1-0.1-0.1-0.1
		c0,0,0-0.1,0-0.1C10.2,5.2,10.3,5.3,10.5,5.4z"/>
	<path class="st33" d="M21.4,18.8c0,0.2-0.1,0.4-0.2,0.7c-0.1,0-0.2,0-0.3,0c0-0.1,0-0.2,0.1-0.3c0-0.1,0-0.1,0-0.2
		C21.1,18.8,21.2,18.8,21.4,18.8z"/>
	<path class="st34" d="M11.3,8.5c0.1,0,0.1,0,0.3,0.1c0.1,0.1,0.1,0.1,0.2,0.2c0,0,0,0.1,0.1,0.1c0.1,0.1,0.1,0.1,0.1,0.3
		c-0.1,0-0.1,0-0.3-0.1c-0.1-0.1-0.1-0.1-0.2-0.2c0,0,0-0.1-0.1-0.1C11.3,8.7,11.3,8.7,11.3,8.5z"/>
	<path class="st35" d="M10.3,14.6c0,0.1,0,0.1,0,0.2c-0.1,0.1-0.1,0.1-0.3,0.2c-0.1,0-0.1,0-0.1,0.1c-0.1,0.1-0.1,0.1-0.3,0.1
		c0-0.1,0-0.1-0.1-0.2c0.1-0.1,0.2-0.1,0.2-0.2c0,0,0.1-0.1,0.1-0.1C10.1,14.6,10.1,14.6,10.3,14.6z"/>
	<path class="st36" d="M11.6,16.1c0.1,0,0.1,0,0.2,0c0,0.2-0.1,0.3-0.2,0.5c0,0,0,0.1-0.1,0.1c0,0,0,0.1-0.1,0.1c-0.1,0-0.1,0-0.2,0
		C11.3,16.6,11.5,16.3,11.6,16.1z"/>
	<path class="st37" d="M13.7,16.6c0.1,0,0.1,0,0.2,0.1c0,0.3,0,0.5,0,0.8c-0.1,0-0.1,0-0.2,0c0-0.1,0-0.3,0-0.4c0-0.1,0-0.1,0-0.2
		C13.7,16.7,13.7,16.7,13.7,16.6z"/>
	<path class="st38" d="M9.6,10.2c0.3,0,0.5,0.1,0.7,0.3c0,0.1,0,0.1,0,0.2c-0.3-0.1-0.5-0.2-0.7-0.3C9.6,10.4,9.6,10.3,9.6,10.2z"/>
	<path class="st39" d="M8.9,12.6c0.3,0,0.5,0,0.8,0c0,0.1,0,0.1-0.1,0.2c-0.2,0-0.5,0-0.7,0C9,12.7,9,12.6,8.9,12.6z"/>
	<path class="st40" d="M12.7,12c0.2,0.1,0.3,0.1,0.4,0.2c0,0.1,0,0.1-0.1,0.2c-0.2,0-0.4-0.1-0.5-0.2c0,0-0.1,0-0.1-0.1
		c0,0-0.1,0-0.1-0.1c0.2-0.1,0.2-0.1,0.4,0C12.7,12.1,12.7,12.1,12.7,12z"/>
	<path class="st41" d="M6.8,5.5c0.1,0,0.2,0,0.3,0c0,0,0,0.1,0,0.1C7.1,5.9,7.2,5.9,7.3,6c0.1,0,0.1,0,0.1,0.1c0,0,0.1,0,0.1,0.1
		c-0.1,0-0.1,0.1-0.2,0.1c0,0-0.1,0-0.1-0.1C7.1,6,6.9,5.9,6.7,5.8C6.7,5.7,6.7,5.6,6.8,5.5z"/>
	<path class="st42" d="M9.1,18.3c0.1,0,0.2,0,0.3,0.1c0.1,0.2,0.1,0.3,0,0.5c0,0.1,0,0.1-0.1,0.1c-0.1,0-0.1,0-0.2,0
		c0-0.1,0-0.2,0.1-0.3c0,0-0.1,0-0.1-0.1C9,18.5,9,18.4,9.1,18.3z"/>
	<path class="st43" d="M13.7,7.9c0.1,0,0.1,0,0.2,0.1c0,0.3,0,0.5,0,0.8c-0.1,0-0.1,0-0.2-0.1c0-0.1,0-0.2,0-0.4c0-0.1,0-0.1,0-0.2
		C13.7,7.9,13.7,7.9,13.7,7.9z"/>
	<path class="st44" d="M11.3,3.3c0.1,0,0.2,0,0.3,0c0,0.5,0,0.9-0.1,1.4c0,0,0,0-0.1,0c0-0.3,0-0.7-0.1-1c-0.1,0-0.1,0-0.2-0.1
		C11.2,3.5,11.2,3.4,11.3,3.3z"/>
	<path class="st45" d="M14,12.2c0.2,0.1,0.2,0.1,0.3,0.2c0,0.2,0,0.2,0,0.4c-0.1,0.1-0.1,0.1-0.2,0.2C14,12.8,14,12.5,14,12.2z"/>
	<path class="st46" d="M13.4,9.2c0.1,0,0.1,0,0.2,0c0,0.3,0,0.5,0,0.8c-0.1,0-0.1,0-0.2,0C13.4,9.8,13.4,9.5,13.4,9.2z"/>
	<path class="st47" d="M8.7,4.1c0,0,0.1,0,0.1,0c0,0.1,0.1,0.2,0.1,0.3c0,0.1,0,0.1,0.1,0.2C9,4.8,9,4.9,9,5.1c0,0-0.1,0-0.1,0
		c0-0.1-0.1-0.2-0.1-0.3c0-0.1,0-0.1-0.1-0.2C8.7,4.4,8.7,4.3,8.7,4.1z"/>
	<path class="st48" d="M8.2,20.3c0,0,0.1,0,0.1,0c0,0.1,0,0.2-0.2,0.3c0,0-0.1,0.1-0.1,0.1c-0.1,0-0.1,0-0.1,0.1c0,0-0.1,0-0.1,0.1
		c-0.1,0-0.1,0-0.2-0.1c0,0,0-0.1,0-0.1c0.1-0.1,0.1-0.1,0.2-0.2C8,20.4,8,20.4,8.2,20.3z"/>
	<path class="st49" d="M15.2,11c0,0,0.1,0,0.1,0.1c0,0.1,0,0.1,0,0.2c0,0,0.1,0,0.1,0.1c-0.2,0.1-0.2,0.1-0.3,0.3
		c-0.1-0.1-0.1-0.2-0.2-0.3C15,11.2,15.1,11.1,15.2,11z"/>
	<path class="st50" d="M15.6,17.5c-0.1,0.1-0.2,0.1-0.4,0.2c-0.1,0-0.1,0-0.1,0c-0.2,0.1-0.3,0.1-0.5,0.1c0-0.1,0-0.1,0.1-0.2
		c0.1,0,0.2-0.1,0.3-0.1c0.1,0,0.1,0,0.2,0C15.5,17.4,15.5,17.4,15.6,17.5z"/>
	<path class="st51" d="M8.7,3.2c0.1,0.1,0.1,0.1,0.2,0.2c0,0,0.1,0.1,0.1,0.1c0,0,0.1,0.1,0.1,0.1c0,0,0.1,0.1,0.1,0.1
		c0,0.1,0,0.1,0,0.2c0,0,0,0.1-0.1,0.1C8.6,3.5,8.6,3.5,8.7,3.2z"/>
	<path class="st52" d="M9.1,4c0,0,0.1,0,0.1,0c0.1,0.1,0.1,0.1,0.2,0.3c0,0.1,0.1,0.1,0.1,0.2c0,0.1,0,0.1,0.1,0.1
		C9.5,4.7,9.5,4.7,9.4,4.7C9.3,4.6,9.3,4.5,9.2,4.5c0,0-0.1-0.1-0.1-0.1C9.1,4.2,9.1,4.2,9.1,4z"/>
	<path class="st53" d="M11.1,4.1C11.2,4.1,11.2,4.1,11.1,4.1c0.1,0.4,0,0.7-0.1,1C11,5,11,5,10.9,5C11,4.7,11.1,4.4,11.1,4.1z"/>
	<path class="st54" d="M10.7,12.2c0,0,0.1,0,0.1,0c0,0.2,0,0.5,0,0.7c0,0-0.1-0.1-0.1-0.1c0-0.1,0-0.1,0-0.2c-0.1,0-0.2,0-0.3-0.1
		c0,0,0.1,0,0.1,0c0.1-0.1,0.1-0.1,0.2-0.2C10.7,12.3,10.7,12.3,10.7,12.2z"/>
	<path class="st55" d="M13.5,15c0.2,0,0.4,0,0.6,0c0,0.1,0,0.1,0,0.2c-0.2,0-0.4,0-0.6,0C13.5,15.1,13.5,15,13.5,15z"/>
	<path class="st56" d="M16,10.4c0,0.2,0,0.2,0,0.3c-0.1,0.1-0.1,0.1-0.3,0.2c0-0.1,0-0.1-0.1-0.3C15.9,10.4,15.9,10.4,16,10.4z"/>
	<path class="st57" d="M10.3,13.2c0.2,0,0.4,0,0.5,0c0,0.1,0,0.1,0,0.2c-0.2,0-0.4,0-0.5,0C10.3,13.3,10.3,13.2,10.3,13.2z"/>
	<path class="st58" d="M14.9,7.4c0.1,0,0.2,0.1,0.3,0.1c0.1,0,0.1,0,0.2,0.1c0.1,0.1,0.1,0.1,0.2,0.2c-0.3-0.1-0.6-0.1-0.9-0.2
		c0.1,0,0.1,0,0.2-0.1C14.9,7.5,14.9,7.4,14.9,7.4z"/>
	<path class="st59" d="M8.3,6.8C8.4,6.8,8.5,6.9,8.6,7c0,0,0,0.1-0.1,0.1c-0.1,0-0.2,0-0.3,0c0-0.1-0.1-0.1-0.1-0.2
		c0,0,0.1,0,0.1-0.1C8.3,6.8,8.3,6.8,8.3,6.8z"/>
	<path class="st60" d="M9,4.9c0.1,0.2,0.1,0.4,0.2,0.7c0,0,0-0.1-0.1-0.1c-0.1,0-0.1,0-0.2,0c0-0.1,0-0.3-0.1-0.4c0,0,0.1,0,0.1,0
		C9,5,9,5,9,4.9z"/>
	<path class="st61" d="M13.9,9.2c0.1,0,0.3,0,0.4,0c0.1,0.1,0.1,0.1,0.1,0.2c0,0,0,0.1,0,0.1c-0.1,0-0.1,0-0.2-0.1
		c0-0.1,0-0.1,0-0.2c-0.1,0-0.1,0-0.2,0c0,0,0,0.1-0.1,0.1c0,0-0.1,0-0.1,0C13.9,9.4,13.9,9.3,13.9,9.2z"/>
	<path class="st62" d="M7.9,6.6c0.3,0,0.3,0,0.4,0.1c0,0.1,0,0.1,0.1,0.2c-0.2,0-0.3,0-0.4-0.1C7.9,6.7,7.9,6.7,7.9,6.6z"/>
	<path class="st63" d="M8.1,5.5c0.2,0,0.2,0,0.3,0.1c0.1,0.1,0.1,0.2,0.2,0.3c-0.1,0-0.1,0-0.2,0.1C8.2,5.8,8.2,5.8,8.1,5.7
		C8.1,5.6,8.1,5.5,8.1,5.5z"/>
	<path class="st64" d="M8.5,3.6C8.6,3.7,8.7,3.8,8.7,4c0,0.2,0,0.2-0.1,0.3C8.6,4.1,8.5,3.9,8.5,3.7C8.5,3.7,8.5,3.6,8.5,3.6z"/>
	<path class="st65" d="M20.4,19.3c0,0.1,0,0.1-0.1,0.2c-0.2,0-0.4,0-0.5,0c0,0,0-0.1,0-0.1C20,19.3,20.2,19.3,20.4,19.3z"/>
	<path class="st66" d="M13.5,15.2c0.2,0,0.3,0,0.5,0c0,0.1,0,0.1-0.1,0.2c0-0.1,0-0.1,0-0.2c-0.1,0.1-0.1,0.1-0.2,0.1
		c-0.2,0.1-0.2,0.1-0.3,0.1C13.5,15.4,13.5,15.3,13.5,15.2z"/>
	<path class="st67" d="M10.6,12.7c0.1,0.1,0.1,0.1,0.1,0.3c-0.1,0-0.3,0-0.4,0.1c0-0.1,0-0.1-0.1-0.2c0.1,0,0.2,0,0.3,0
		C10.6,12.9,10.6,12.8,10.6,12.7z"/>
	<path class="st68" d="M12.5,11.9c0.1,0.1,0.1,0.1,0.3,0.1c0,0.1,0,0.1,0,0.2c-0.1,0-0.2,0-0.2,0c-0.1,0-0.1,0-0.1,0
		c-0.1,0-0.1,0-0.2-0.1c0.1,0,0.2,0,0.3,0C12.5,11.9,12.5,11.9,12.5,11.9z"/>
	<path class="st69" d="M10.1,5.5c0.2,0,0.4,0,0.7,0c-0.2,0.2-0.2,0.2-0.3,0.2C10.3,5.7,10.3,5.7,10.1,5.5z"/>
	<path class="st70" d="M10.6,4.9c0,0.1,0.1,0.1,0.1,0.2c-0.1,0.1-0.1,0.1-0.3,0.1c0,0-0.1,0-0.1,0c0-0.1,0-0.2,0-0.3
		c0.1,0,0.1,0,0.3,0.1C10.6,5,10.6,5,10.6,4.9z"/>
	<path class="st71" d="M11.5,16.4C11.5,16.4,11.5,16.4,11.5,16.4c0.1,0.4,0.1,0.4,0.1,0.5c-0.1,0-0.1,0-0.2,0
		C11.3,16.7,11.4,16.5,11.5,16.4z"/>
	<path class="st72" d="M12,11.8c0.2,0,0.3,0,0.5,0c0,0.1,0,0.1,0,0.2c-0.4,0-0.4,0-0.5-0.1C12,11.9,12,11.8,12,11.8z"/>
	<path class="st73" d="M11.3,8.5c0.1,0,0.1,0,0.3,0.1c0,0.1,0,0.3-0.1,0.4C11.4,8.8,11.3,8.7,11.3,8.5z"/>
	<path class="st74" d="M16.7,21.1c0.1,0,0.2,0,0.3,0c0,0.1,0,0.1-0.1,0.2c-0.1,0-0.2,0-0.3,0C16.6,21.3,16.7,21.2,16.7,21.1z"/>
	<path class="st75" d="M9.9,14.8c0,0,0,0.1,0.1,0.1c0,0-0.1,0-0.1,0c0,0.1,0,0.1,0.1,0.2c-0.1,0-0.2,0-0.3,0.1c0-0.1,0-0.1-0.1-0.2
		C9.7,14.9,9.8,14.8,9.9,14.8z"/>
	<path class="st76" d="M11.6,11.4c0.3,0.1,0.3,0.1,0.4,0.2c-0.1,0-0.1,0-0.2,0c-0.2,0-0.2,0-0.3,0.1c0,0-0.1,0-0.1-0.1
		c0,0,0-0.1,0-0.1c0.1,0,0.1,0,0.2,0C11.6,11.5,11.6,11.5,11.6,11.4z"/>
	<path class="st77" d="M7,5.8c0.1,0,0.2,0.1,0.2,0.1C7.3,6,7.3,6,7.4,6c0.1,0.1,0.1,0.1,0.2,0.2c-0.1,0-0.1,0-0.2,0.1
		C7.3,6.2,7.3,6.2,7.2,6.1c0,0-0.1-0.1-0.1-0.1C7,6,7,6,7,5.9C7,5.9,7,5.9,7,5.8z"/>
	<path class="st78" d="M13.9,15.7c0.1,0,0.1,0,0.2,0c0.1,0.2,0.1,0.2,0,0.3c-0.1,0-0.2,0-0.3-0.1c0-0.1,0-0.1,0.1-0.2
		C13.9,15.8,13.9,15.7,13.9,15.7z"/>
	<path class="st79" d="M7.6,6C7.6,6,7.6,6,7.6,6c0.3,0.1,0.5,0.2,0.8,0.2c0,0,0,0,0,0.1c-0.2,0.1-0.3,0.1-0.4,0
		C7.8,6.2,7.7,6.1,7.6,6C7.6,6,7.6,6,7.6,6z"/>
	<path class="st80" d="M13.5,16.2c0.2,0,0.4,0,0.6,0c0,0,0,0.1,0,0.1c-0.2,0-0.4,0-0.6,0C13.5,16.3,13.5,16.2,13.5,16.2z"/>
	<path class="st81" d="M9.6,10.2c0.3,0,0.3,0,0.4,0.2c-0.1,0.1-0.1,0.1-0.3,0.1c0,0-0.1,0-0.1-0.1C9.6,10.4,9.6,10.3,9.6,10.2z"/>
	<path class="st82" d="M13.8,10.2c0.2,0,0.4,0,0.6,0c0,0,0,0.1,0,0.1c-0.2,0-0.4,0-0.6,0C13.8,10.2,13.8,10.2,13.8,10.2z"/>
	<path class="st83" d="M13.8,9c0.2,0,0.4,0,0.6,0c0,0,0,0.1,0,0.1c-0.2,0-0.4,0-0.6,0C13.8,9.1,13.8,9,13.8,9z"/>
	<path class="st84" d="M10.3,12c0.2,0,0.4,0,0.5,0c0,0,0,0.1,0,0.1c-0.2,0-0.4,0-0.5,0C10.3,12.1,10.3,12.1,10.3,12z"/>
	<path class="st85" d="M10.4,4.4c0.1,0,0.1,0,0.2,0c0,0.1,0,0.2,0,0.3c-0.1,0-0.1,0-0.2,0.1C10.4,4.7,10.3,4.6,10.4,4.4
		C10.3,4.4,10.4,4.4,10.4,4.4z"/>
	<path class="st86" d="M16.1,10.2c0,0.1,0.1,0.1,0.1,0.2c-0.1,0.2-0.1,0.2-0.2,0.3C16,10.3,16,10.3,16.1,10.2z"/>
	<path class="st87" d="M14.9,19.9c0.1,0,0.2,0,0.3,0c-0.1,0-0.1,0-0.2,0.1c0,0,0,0.1,0,0.1c0.1,0,0.1,0,0.2,0c0,0,0,0.1-0.1,0.1
		c-0.1,0-0.2,0-0.3-0.1C14.8,20,14.9,19.9,14.9,19.9z"/>
	<path class="st88" d="M15.6,17.5c-0.3,0.2-0.3,0.2-0.5,0.1c0,0-0.1,0-0.1,0C15.3,17.4,15.4,17.4,15.6,17.5z"/>
	<path class="st89" d="M8.4,5.9C8.5,6,8.7,6,8.8,6C8.6,6.2,8.6,6.2,8.5,6.2C8.5,6.1,8.4,6,8.4,5.9z"/>
	<path class="st90" d="M11,4.9c0,0.1,0,0.2,0,0.3c-0.1,0-0.2,0-0.3,0C10.9,4.9,10.9,4.9,11,4.9z"/>
	<path class="st91" d="M13.3,10.2c0.1,0,0.3,0,0.4,0c0,0,0,0.1,0,0.1c-0.1,0-0.3,0-0.4,0C13.3,10.2,13.3,10.2,13.3,10.2z"/>
	<path class="st92" d="M13.3,9c0.1,0,0.3,0,0.4,0c0,0,0,0.1,0,0.1c-0.1,0-0.3,0-0.4,0C13.3,9.1,13.3,9,13.3,9z"/>
	<path class="st93" d="M0.2,0.3"/>
	<path class="st93" d="M0.2,0.3"/>
	<path class="st93" d="M0.2,0.3"/>
	<path class="st93" d="M0.2,0.3"/>
	<path class="st93" d="M0.2,0.3"/>
	<path class="st94" d="M0.2,0.3"/>
	<path class="st94" d="M0.2,0.3"/>
	<path class="st94" d="M0.2,0.3"/>
	<path class="st94" d="M0.2,0.3"/>
	<path class="st94" d="M0.2,0.3"/>
	<path class="st94" d="M0.2,0.3"/>
	<path class="st94" d="M0.2,0.3"/>
	<path class="st94" d="M0.2,0.3"/>
	<path class="st94" d="M0.2,0.3"/>
	<path class="st94" d="M0.2,0.3"/>
	<path class="st94" d="M0.2,0.3"/>
	<path class="st94" d="M0.2,0.3"/>
	<path class="st94" d="M0.2,0.3"/>
	<path class="st94" d="M0.2,0.3"/>
	<path class="st94" d="M0.2,0.3"/>
	<path class="st94" d="M0.2,0.3"/>
	<path class="st95" d="M7.5,5.9C7.6,6,7.6,6,7.6,6L7.5,5.9z"/>
	<path class="st95" d="M0.2,0.3"/>
	<path class="st95" d="M0.2,0.3"/>
	<path class="st95" d="M0.2,0.3"/>
	<path class="st96" d="M0.2,0.3"/>
	<path class="st96" d="M0.2,0.3"/>
	<path class="st96" d="M0.2,0.3"/>
	<path class="st96" d="M0.2,0.3"/>
	<path class="st96" d="M0.2,0.3"/>
	<path class="st96" d="M0.2,0.3"/>
	<path class="st96" d="M0.2,0.3"/>
	<path class="st96" d="M0.2,0.3"/>
	<path class="st96" d="M0.2,0.3"/>
	<path class="st96" d="M0.2,0.3"/>
	<path class="st96" d="M0.2,0.3"/>
	<path class="st96" d="M0.2,0.3"/>
	<path class="st96" d="M0.2,0.3"/>
	<path class="st96" d="M0.2,0.3"/>
	<path class="st96" d="M0.2,0.3"/>
	<path class="st96" d="M0.2,0.3"/>
	<path class="st96" d="M0.2,0.3"/>
	<path class="st96" d="M0.2,0.3"/>
	<path class="st96" d="M0.2,0.3"/>
	<path class="st96" d="M0.2,0.3"/>
	<path class="st96" d="M0.2,0.3"/>
	<path class="st96" d="M0.2,0.3"/>
	<path class="st96" d="M0.2,0.3"/>
	<path class="st96" d="M0.2,0.3"/>
	<path class="st96" d="M0.2,0.3"/>
	<path class="st96" d="M0.2,0.3"/>
	<path class="st96" d="M0.2,0.3"/>
	<path class="st96" d="M0.2,0.3"/>
	<path class="st96" d="M0.2,0.3"/>
	<path class="st96" d="M0.2,0.3"/>
	<path class="st96" d="M0.2,0.3"/>
	<path class="st96" d="M0.2,0.3"/>
	<path class="st96" d="M0.2,0.3"/>
	<path class="st96" d="M0.2,0.3"/>
	<path class="st96" d="M0.2,0.3"/>
	<path class="st96" d="M0.2,0.3"/>
	<path class="st96" d="M0.2,0.3"/>
	<path class="st96" d="M0.2,0.3"/>
	<path class="st96" d="M0.2,0.3"/>
	<path class="st96" d="M0.2,0.3"/>
	<path class="st96" d="M0.2,0.3"/>
	<path class="st96" d="M0.2,0.3"/>
	<path class="st96" d="M0.2,0.3"/>
	<path class="st96" d="M0.2,0.3"/>
	<path class="st96" d="M0.2,0.3"/>
	<path class="st96" d="M0.2,0.3"/>
	<path class="st96" d="M0.2,0.3"/>
	<path class="st96" d="M0.2,0.3"/>
	<path class="st96" d="M0.2,0.3"/>
	<path class="st96" d="M0.2,0.3"/>
	<path class="st96" d="M0.2,0.3"/>
	<path class="st96" d="M0.2,0.3"/>
	<path class="st96" d="M0.2,0.3"/>
	<path class="st96" d="M0.2,0.3"/>
	<path class="st96" d="M0.2,0.3"/>
	<path class="st96" d="M0.2,0.3"/>
	<path class="st96" d="M0.2,0.3"/>
	<path class="st96" d="M0.2,0.3"/>
	<path class="st96" d="M0.2,0.3"/>
	<path class="st96" d="M0.2,0.3"/>
	<path class="st96" d="M0.2,0.3"/>
	<path class="st96" d="M0.2,0.3"/>
	<path class="st96" d="M0.2,0.3"/>
	<path class="st96" d="M0.2,0.3"/>
	<path class="st96" d="M0.2,0.3"/>
	<path class="st96" d="M0.2,0.3"/>
	<path class="st96" d="M0.2,0.3"/>
	<path class="st96" d="M0.2,0.3"/>
	<path class="st96" d="M0.2,0.3"/>
	<path class="st96" d="M0.2,0.3"/>
	<path class="st96" d="M0.2,0.3"/>
	<path class="st96" d="M0.2,0.3"/>
	<path class="st96" d="M0.2,0.3"/>
	<path class="st96" d="M0.2,0.3"/>
	<path class="st96" d="M0.2,0.3"/>
	<path class="st96" d="M0.2,0.3"/>
	<path class="st96" d="M0.2,0.3"/>
	<path class="st96" d="M0.2,0.3"/>
	<path class="st96" d="M0.2,0.3"/>
	<path class="st96" d="M0.2,0.3"/>
	<path class="st96" d="M0.2,0.3"/>
	<path class="st96" d="M0.2,0.3"/>
	<path class="st96" d="M0.2,0.3"/>
	<path class="st96" d="M0.2,0.3"/>
	<path class="st96" d="M0.2,0.3"/>
	<path class="st96" d="M0.2,0.3"/>
	<path class="st96" d="M0.2,0.3"/>
	<path class="st96" d="M0.2,0.3"/>
	<path class="st96" d="M0.2,0.3"/>
	<path class="st96" d="M0.2,0.3"/>
	<path class="st96" d="M0.2,0.3"/>
	<path class="st96" d="M0.2,0.3"/>
	<path class="st96" d="M0.2,0.3"/>
	<path class="st96" d="M0.2,0.3"/>
	<path class="st96" d="M0.2,0.3"/>
	<path class="st96" d="M0.2,0.3"/>
	<path class="st96" d="M0.2,0.3"/>
	<path class="st96" d="M0.2,0.3"/>
	<path class="st96" d="M0.2,0.3"/>
	<path class="st96" d="M0.2,0.3"/>
</g>
</svg>
